<?xml version="1.0" encoding="UTF-8"?>
<svg width="297mm" height="210mm" version="1.1" viewBox="0 0 1052.3622 744.09448" xmlns="http://www.w3.org/2000/svg">
 <g transform="translate(0 -308.27)">
  <path transform="translate(0 308.27)" d="m530.41 10.338a457.25 457.25 0 0 0 -457.25 457.25 457.25 457.25 0 0 0 21.01 135.39h872.98a457.25 457.25 0 0 0 20.52 -135.39 457.25 457.25 0 0 0 -457.25 -457.25z" fill="#fea" fill-opacity=".59172"/>
  <rect x="-.85747" y="904.33" width="1054.1" height="147.99" ry="0" fill="#d5f6ff"/>
  <path d="m562.72 319.56c-121.27-3e-4 -179.25 18.887-246.07 52.882 407.11-3.6467 331.48 230.75 415.93 536.03l234.55 4.7431c13.597-43.845 20.515-89.488 20.52-135.39 3e-4 -121.27-48.174-237.58-133.93-323.33-85.751-85.752-169.74-134.94-291.01-134.94z" fill="#ffcf2a" fill-opacity=".59172"/>
  <rect x="-.85747" y="915.49" width="1054.1" height="104.13" ry="0" fill="#80e5ff" opacity=".6"/>
  <rect x="-.85747" y="911.71" width="1054.1" height="79.56" ry="0" fill="#80e5ff" opacity=".8"/>
  <rect x="-.85747" y="904.89" width="1054.1" height="46.805" ry="0" fill="#4be5ff"/>
  <g transform="matrix(.87975 0 0 .87975 77.034 130.63)">
   <g transform="translate(-112.08 -764.82)">
    <path d="m532.31 1549.2v93.545h-25.403c-16.216 0-40.281 25.105-40.507 45.264-0.0224 2.0088 0.15772 4.7704-0.0506 7.303l-60.22 0.12v18.681h445.17v-18.681l-59.723 0.08c2e-3 -0.1256-0.0695-7.4012-0.0695-7.5287 0-19.105-17.592-45.238-36.966-45.238h-29.418v-93.545h-192.81z" fill="#ccc"/>
    <rect x="466.38" y="1688" width="325.16" height="7.4722" fill="#666"/>
    <rect x="546.31" y="1635.7" width="164.81" height="9.3403" fill="#666"/>
    <rect x="405.81" y="1702.5" width="445.97" height="13.67" ry="0" fill="#666"/>
    <path d="m611.03 1551.3 111.9 0.2336-0.10692 90.106c-5.6573-62.138-50.924-77.083-111.79-90.34z" fill="#b3b3b3"/>
    <path d="m652.58 1649.2 111.9 0.083c6.9062 4.2367 15.367 13.118 20.413 29.22-22.154-7.4496-71.444-24.603-132.31-29.303z" fill="#b3b3b3"/>
   </g>
   <rect x="142.69" y="357.39" width="748.07" height="430.6" ry="35.417"/>
   <rect x="178.18" y="389.38" width="677.08" height="327.84" ry="8.1734" fill="#f2f2f2"/>
   <ellipse cx="516.72" cy="748.05" rx="23.229" ry="18.681" fill="#fff"/>
   <path d="m846.07 538.53v-140.62c0-0.0786-0.0635-0.1421-0.1421-0.1421h-268.83c-0.0786 0 8.7334 1.1524 8.8086 1.1748 110.98 14.638 205.64 110.01 260.17 209.84z" fill="#ccc"/>
  </g>
  <g transform="matrix(.87975 0 0 .87975 31.935 -237.93)">
   <rect x="700.94" y="1180.5" width="118.31" height="217.4" ry="19.469" fill="#808080"/>
   <rect x="705" y="1184.5" width="110.18" height="209.29" ry="18.742" fill="#4d4d4d"/>
   <rect x="715.38" y="1202.5" width="89.43" height="160.97" ry=".084924" fill="#f2f2f2"/>
   <rect transform="scale(1,-1)" x="744.36" y="-1382.6" width="31.468" height="13.151" ry="5.806"/>
   <rect x="744.36" y="1190.5" width="31.468" height="6.5755" ry="2.903"/>
   <path d="m718.04 1203.7h84.112c0.0471 0 0.0849 0.038 0.0849 0.085v160.8c0 0.047-0.68925-5.2239-0.70265-5.2689-8.7556-66.384-23.778-123-83.495-155.62z" fill="#ccc"/>
  </g>
  <g transform="matrix(.87975 0 0 .87975 12.159 131.6)">
   <g transform="translate(-159.91 -627.58)">
    <rect x="217.95" y="1240.4" width="340.27" height="276.77" ry="22.764"/>
    <rect x="232.57" y="1261" width="307.98" height="197.77" ry="4.9306" fill="#f2f2f2"/>
    <g transform="matrix(1.0205 0 0 1.0205 -84.747 758.59)">
     <path d="m302.43 703.93 325.57 3.3808c3.1201 0.0324 4.6477 2.6713 5.6322 5.6322l32.963 99.139c0.98446 2.9609-2.512 5.6322-5.6322 5.6322h-398.25c-3.1202 0-6.7596-2.7227-5.6322-5.6322l39.724-102.52c1.1274-2.9095 2.5121-5.6646 5.6322-5.6322z"/>
     <path d="m437.39 789.24 49.878 0.51795c0.478 5e-3 0.71205 0.40925 0.86287 0.86287l5.05 15.188c0.15082 0.45361-0.38484 0.86287-0.86287 0.86287h-61.013c-0.47804 0-1.0356-0.41714-0.86288-0.86287l6.0859-15.706c0.17271-0.44574 0.38486-0.86783 0.86287-0.86287z" fill="#f9f9f9"/>
    </g>
    <rect x="230.08" y="1479.8" width="317.41" height="7.7628" ry="3.8814" fill="#fff"/>
    <rect x="176.6" y="1594.2" width="420.06" height="18.113" ry="7.8491"/>
    <g transform="matrix(1.0205 0 0 1.0205 -84.747 758.59)" fill="#fff">
     <rect x="285.52" y="778.66" width="354.87" height="3.0879" ry="1.544"/>
     <rect x="309.93" y="722.75" width="306.06" height="3.0879" ry="1.544"/>
     <rect x="288.69" y="768.39" width="348.54" height="3.0879" ry="1.544"/>
     <rect x="294.11" y="757.54" width="337.69" height="3.0879" ry="1.544"/>
     <rect x="298.4" y="747.15" width="329.11" height="3.0879" ry="1.544"/>
     <rect x="303.37" y="738.76" width="319.17" height="3.0879" ry="1.544"/>
     <rect x="306.31" y="731.08" width="313.29" height="3.0879" ry="1.544"/>
    </g>
   </g>
   <path d="m264.15 640.45 111.13-3.6029c0.0471-2e-3 0.0849 0.038 0.0849 0.085v160.8c0 0.047-0.68925-5.2239-0.70265-5.2689-8.7556-66.384-50.8-119.4-110.52-152.02z" fill="#ccc"/>
  </g>
  <g transform="matrix(.87975 0 0 .87975 47.439 -341.89)">
   <rect x="851.33" y="1158.8" width="237.03" height="359.52" ry="29.571" fill="#b3b3b3"/>
   <rect x="856.9" y="1164.1" width="225.88" height="348.9" ry="28.697"/>
   <rect x="867.9" y="1189.3" width="204.45" height="290.59" ry="7.2446" fill="#f2f2f2"/>
   <path d="m970.98 1192.1h98.763c0.055 0 0.1 0.045 0.1 0.1v188.81c0 0.055-0.8092-6.1338-0.825-6.1866-10.281-77.948-27.92-144.43-98.038-182.73z" fill="#ccc"/>
  </g>
 </g>
</svg>
